<svg preserveAspectRatio="none" width="100%" height="100%" overflow="visible" style="display: block;" viewBox="0 0 61.9721 50.4367" fill="none" xmlns="http://www.w3.org/2000/svg">
<foreignObject x="-8.0402" y="-8.0402" width="78.0525" height="66.5171"><div xmlns="http://www.w3.org/1999/xhtml" style="backdrop-filter:blur(4.02px);clip-path:url(#bgblur_0_0_109_clip_path);height:100%;width:100%"></div></foreignObject><path id="carpeta fill" data-figma-bg-blur-radius="8.0402" d="M18.0511 3.58422C17.801 1.53826 16.0581 0 13.997 0H4.08548C1.69095 0 -0.195877 2.05354 0.016297 4.44049L3.71418 46.7085C3.89604 48.8227 5.66921 50.4367 7.78337 50.4367H54.8177C56.9395 50.4367 58.705 48.8151 58.8869 46.7085L61.9558 11.6392C62.168 9.25229 60.2812 7.19875 57.8867 7.19875L22.1051 7.18359C20.044 7.18359 18.3011 5.64533 18.0511 3.59937V3.58422Z" fill="url(#paint0_linear_0_109)" fill-opacity="0.3"/>
<defs>
<clipPath id="bgblur_0_0_109_clip_path" transform="translate(8.0402 8.0402)"><path d="M18.0511 3.58422C17.801 1.53826 16.0581 0 13.997 0H4.08548C1.69095 0 -0.195877 2.05354 0.016297 4.44049L3.71418 46.7085C3.89604 48.8227 5.66921 50.4367 7.78337 50.4367H54.8177C56.9395 50.4367 58.705 48.8151 58.8869 46.7085L61.9558 11.6392C62.168 9.25229 60.2812 7.19875 57.8867 7.19875L22.1051 7.18359C20.044 7.18359 18.3011 5.64533 18.0511 3.59937V3.58422Z"/>
</clipPath><linearGradient id="paint0_linear_0_109" x1="6.6317" y1="4.65339" x2="67.015" y2="43.0699" gradientUnits="userSpaceOnUse">
<stop stop-color="#AFB0F5" stop-opacity="0.9"/>
<stop offset="0.447036" stop-color="#AFB0F5" stop-opacity="0.955296"/>
<stop offset="1" stop-color="#565FE8" stop-opacity="0.9"/>
</linearGradient>
</defs>
</svg>
