<svg width="24" height="24" viewBox="0 0 24 24" fill="none" xmlns="http://www.w3.org/2000/svg">
<mask id="mask0" style="mask-type:alpha" maskUnits="userSpaceOnUse" x="0" y="0" width="24" height="24">
<rect width="24" height="24" fill="#D9D9D9"/>
</mask>
<g mask="url(#mask0)">
<path d="M12 12.7041L6.75372 17.9501C6.66022 18.0437 6.54547 18.0937 6.40947 18.1001C6.27364 18.1066 6.15256 18.0566 6.04622 17.9501C5.93972 17.8437 5.88647 17.7258 5.88647 17.5963C5.88647 17.4668 5.93972 17.3489 6.04622 17.2426L11.2922 11.9963L6.04622 6.75006C5.95256 6.65656 5.90256 6.54181 5.89622 6.40581C5.88972 6.26998 5.93972 6.14889 6.04622 6.04256C6.15256 5.93606 6.27047 5.88281 6.39997 5.88281C6.52947 5.88281 6.64739 5.93606 6.75372 6.04256L12 11.2886L17.2462 6.04256C17.3397 5.94889 17.4545 5.89889 17.5905 5.89256C17.7263 5.88606 17.8474 5.93606 17.9537 6.04256C18.0602 6.14889 18.1135 6.26681 18.1135 6.39631C18.1135 6.52581 18.0602 6.64373 17.9537 6.75006L12.7077 11.9963L17.9537 17.2426C18.0474 17.3361 18.0974 17.4508 18.1037 17.5868C18.1102 17.7226 18.0602 17.8437 17.9537 17.9501C17.8474 18.0566 17.7295 18.1098 17.6 18.1098C17.4705 18.1098 17.3526 18.0566 17.2462 17.9501L12 12.7041Z" fill="#1C1B1F"/>
</g>
</svg>
