<svg preserveAspectRatio="none" width="100%" height="100%" overflow="visible" style="display: block;" viewBox="0 0 36 24" fill="none" xmlns="http://www.w3.org/2000/svg">
<g id="flag/AR" clip-path="url(#clip0_0_8)">
<path id="Vector" d="M0 0H35.9298V24H0V0Z" fill="var(--fill-0, white)"/>
<path id="Vector_2" d="M0 0H35.9298V8H0V0ZM0 16H35.9298V24H0V16Z" fill="var(--fill-0, #338AF3)"/>
<path id="Vector_3" d="M18 14.807C19.5503 14.807 20.807 13.5503 20.807 12C20.807 10.4497 19.5503 9.19298 18 9.19298C16.4497 9.19298 15.193 10.4497 15.193 12C15.193 13.5503 16.4497 14.807 18 14.807Z" fill="var(--fill-0, #FFDA44)"/>
<path id="Vector (Stroke)" fill-rule="evenodd" clip-rule="evenodd" d="M18 9.36842C16.5466 9.36842 15.3684 10.5466 15.3684 12C15.3684 13.4534 16.5466 14.6316 18 14.6316C19.4534 14.6316 20.6316 13.4534 20.6316 12C20.6316 10.5466 19.4534 9.36842 18 9.36842ZM15.0175 12C15.0175 10.3528 16.3528 9.01754 18 9.01754C19.6472 9.01754 20.9825 10.3528 20.9825 12C20.9825 13.6472 19.6472 14.9825 18 14.9825C16.3528 14.9825 15.0175 13.6472 15.0175 12Z" fill="var(--fill-0, #D6AB00)"/>
</g>
<defs>
<clipPath id="clip0_0_8">
<rect width="36" height="24" fill="white"/>
</clipPath>
</defs>
</svg>
