<svg preserveAspectRatio="none" width="100%" height="100%" overflow="visible" style="display: block;" viewBox="0 0 65 45" fill="none" xmlns="http://www.w3.org/2000/svg">
<g id="Logo">
<path d="M4.00654 38.3737C3.62834 38.1626 3.17923 38.0571 2.68284 38.0571C2.25737 38.0571 1.87917 38.1509 1.53643 38.3385C1.28824 38.4675 1.09914 38.6669 0.921859 38.8898V36.0985H0V43.1118H0.874584V42.2791C1.05186 42.5254 1.25278 42.7365 1.51279 42.8772C1.85554 43.0649 2.24555 43.1704 2.68284 43.1704C3.17923 43.1704 3.61652 43.0649 4.00654 42.8538C4.38474 42.6427 4.69202 42.3378 4.91658 41.9507C5.14113 41.5637 5.2475 41.1181 5.2475 40.6138C5.2475 40.1095 5.14113 39.6521 4.91658 39.2768C4.69202 38.9015 4.39656 38.5966 4.00654 38.3855V38.3737ZM4.08927 41.5285C3.93563 41.7983 3.73471 41.9976 3.4747 42.1501C3.21469 42.2908 2.93104 42.3729 2.60011 42.3729C2.26919 42.3729 1.99736 42.3026 1.73735 42.1501C1.47734 42.0094 1.27642 41.7983 1.12278 41.5285C0.969133 41.2588 0.898221 40.9539 0.898221 40.602C0.898221 40.2502 0.969133 39.9335 1.12278 39.6755C1.27642 39.4175 1.47734 39.2064 1.73735 39.0657C1.99736 38.9249 2.28101 38.8428 2.60011 38.8428C2.91922 38.8428 3.21469 38.9132 3.4747 39.0657C3.73471 39.2064 3.93563 39.4175 4.08927 39.6755C4.24291 39.9335 4.31383 40.2502 4.31383 40.602C4.31383 40.9539 4.24291 41.2705 4.08927 41.5285Z" fill="white"/>
<path d="M9.96316 38.104L8.214 42.1032L6.45301 38.104H5.4957L7.72943 43.1001L7.56397 43.4519C7.43396 43.7451 7.30396 43.9445 7.15031 44.0618C7.00849 44.179 6.81939 44.226 6.59483 44.226C6.41755 44.226 6.26391 44.1908 6.11027 44.1321C5.95663 44.0735 5.8148 43.9797 5.68479 43.8624L5.29478 44.5426C5.46024 44.6951 5.66116 44.8124 5.88571 44.8827C6.11027 44.9648 6.34664 45 6.59483 45C6.85485 45 7.09122 44.9531 7.31578 44.871C7.52851 44.7889 7.72943 44.6482 7.91853 44.4371C8.09581 44.2377 8.26127 43.9562 8.41491 43.6044L10.8732 38.0923H9.97498L9.96316 38.104Z" fill="white"/>
<path d="M16.558 31.2901H14.3243V43.2057H20.2454V41.0594H16.558V31.2901Z" fill="white"/>
<path d="M28.1994 35.5473C27.8449 35.043 27.3957 34.656 26.8757 34.3863C26.3557 34.1282 25.7884 33.9992 25.162 33.9992C24.5002 33.9992 23.8856 34.1282 23.3301 34.3745C22.7746 34.6208 22.2664 35.0196 21.8055 35.5473C21.3918 36.0047 21.0964 36.4973 20.9191 37.025C20.7418 37.5528 20.6473 38.1275 20.6473 38.7491C20.6473 39.3706 20.7418 39.9688 20.9427 40.52C21.1437 41.0829 21.4155 41.5755 21.7819 42.0094C22.1719 42.4668 22.6564 42.8304 23.2119 43.1001C23.7792 43.3581 24.4056 43.4989 25.1029 43.4989C25.1975 43.4989 25.3038 43.4989 25.3984 43.4754C25.5048 43.4754 25.5993 43.4519 25.7057 43.4402C26.1784 43.3581 26.6512 43.1822 27.0885 42.9359C27.5376 42.6896 27.8921 42.373 28.164 41.986H28.1994V43.1939H30.185V34.269H28.1994V35.5473ZM28.1285 38.7373C28.1285 39.4996 27.8803 40.1447 27.3957 40.6607C26.9112 41.1767 26.273 41.4347 25.4929 41.423C24.7602 41.423 24.1456 41.1885 23.6138 40.6842C23.0819 40.1799 22.8219 39.57 22.8219 38.8311C22.8219 38.0454 23.0701 37.4003 23.5783 36.8726C24.0865 36.3448 24.7365 36.0868 25.5284 36.0985C26.2966 36.0985 26.923 36.3331 27.4076 36.8491C27.8921 37.3652 28.1403 37.9867 28.1403 38.7256L28.1285 38.7373Z" fill="white"/>
<path d="M39.4272 34.269H36.8743L33.9669 38.4793V31.2901H31.8041V43.2057H33.9669V39.0305L37.0634 43.2057H39.9708L36.1652 38.6435L39.4272 34.269Z" fill="white"/>
<path d="M46.6602 34.269V35.5473C46.3057 35.043 45.8566 34.656 45.3365 34.3863C44.8165 34.1282 44.2492 33.9992 43.6228 33.9992C42.961 33.9992 42.3464 34.1282 41.7909 34.3745C41.2354 34.6208 40.7272 35.0196 40.2663 35.5473C39.8527 36.0047 39.5572 36.4973 39.3799 37.025C39.2026 37.5528 39.1081 38.1275 39.1081 38.7491C39.1081 39.3706 39.2026 39.9688 39.4035 40.52C39.5926 41.0829 39.8763 41.5755 40.2309 42.0094C40.6209 42.4668 41.1054 42.8304 41.6609 43.1001C42.2282 43.3581 42.8546 43.4989 43.5519 43.4989C43.6465 43.4989 43.7528 43.4989 43.8474 43.4754C43.9537 43.4754 44.0483 43.4519 44.1547 43.4402C44.6392 43.3581 45.1002 43.1822 45.5374 42.9359C45.9866 42.6896 46.3411 42.373 46.6129 41.986H46.6484V43.1939H48.634V34.269H46.6484H46.6602ZM46.6011 38.7373C46.6011 39.4996 46.3529 40.1447 45.8684 40.6607C45.3838 41.1767 44.7456 41.4347 43.9656 41.423C43.2446 41.423 42.6064 41.1885 42.0864 40.6842C41.5545 40.1799 41.2945 39.57 41.2945 38.8311C41.2945 38.0454 41.5427 37.4003 42.0509 36.8726C42.5591 36.3448 43.2092 36.0868 44.001 36.0985C44.7692 36.0985 45.3956 36.3331 45.8802 36.8491C46.3648 37.3652 46.6129 37.9867 46.6129 38.7256L46.6011 38.7373Z" fill="white"/>
<path d="M56.0797 38.9015C56.0797 38.9719 56.0797 39.054 56.0679 39.1243C56.0325 39.699 55.9024 40.215 55.6661 40.6959C55.4297 41.1767 54.9451 41.4113 54.2124 41.4113C53.8696 41.4113 53.5742 41.3292 53.2905 41.165C53.0187 41.0125 52.8059 40.778 52.6523 40.4965C52.5814 40.3558 52.5341 40.2033 52.4987 40.0391C52.4632 39.8749 52.4278 39.699 52.4041 39.5348C52.3923 39.3824 52.3805 39.2416 52.3805 39.0892C52.3805 38.9484 52.3805 38.8077 52.3805 38.667V34.2807H50.2177V39.3354C50.2177 39.8984 50.2649 40.4261 50.3477 40.907C50.4304 41.3878 50.6786 41.8335 51.0804 42.2674C51.4586 42.6896 51.8959 42.9946 52.3923 43.1939C52.8887 43.3933 53.4087 43.4871 53.9287 43.4871C54.4251 43.4871 54.886 43.3933 55.2879 43.1939C55.6897 42.9946 56.0088 42.6896 56.2334 42.244H56.2688V43.1939H58.2544V34.269H56.0915V38.8898L56.0797 38.9015Z" fill="white"/>
<path d="M62.8873 34.269V31.2901H60.7127V34.269H59.6608V36.1806H60.7127V43.2057H62.8873V36.1806H64.1874V34.269H62.8873Z" fill="white"/>
<path d="M0 0.574668C0 0.258014 0.260011 0 0.579116 0H20.4227C20.7418 0 21.0018 0.258014 21.0018 0.574668V6.37999C21.0018 6.69664 20.7418 6.95466 20.4227 6.95466H8.17854C7.97762 6.95466 7.81216 7.11885 7.81216 7.31822V12.0563C7.81216 12.2557 7.97762 12.4199 8.17854 12.4199H17.1844C17.5035 12.4199 17.7635 12.6779 17.7635 12.9945V18.7999C17.7635 19.1165 17.5035 19.3745 17.1844 19.3745H8.17854C7.97762 19.3745 7.81216 19.5387 7.81216 19.7381V28.3464C7.81216 28.663 7.55215 28.9211 7.23304 28.9211H0.579116C0.260011 28.9211 0 28.663 0 28.3464V0.574668Z" fill="var(--fill-0, white)"/>
<path d="M24.8193 0.574668C24.8193 0.258014 25.0911 0 25.4102 0H32.0641C32.3832 0 32.6432 0.258014 32.6432 0.574668V28.3581C32.6432 28.6748 32.3832 28.9328 32.0641 28.9328H25.4102C25.0911 28.9328 24.8311 28.6748 24.8311 28.3581V0.574668H24.8193Z" fill="var(--fill-0, white)"/>
<path d="M52.6759 0H38.9544C38.6353 0 38.3753 0.258014 38.3753 0.574668V28.3581C38.3753 28.6748 38.6353 28.9328 38.9544 28.9328H50.6904C71.6568 28.9328 67.1775 0 52.6759 0ZM52.0614 21.9664H46.7666C46.4475 21.9664 46.1875 21.7084 46.1875 21.3917V7.54105C46.1875 7.2244 46.4475 6.96639 46.7666 6.96639H49.5322C61.3036 6.96639 59.129 21.9664 52.0614 21.9664Z" fill="var(--fill-0, white)"/>
</g>
</svg>
