<svg width="46" height="32" viewBox="0 0 46 32" fill="none" xmlns="http://www.w3.org/2000/svg">
<g clip-path="url(#clip0_logo)">
<path d="M0 0.412805C0 0.183469 0.183469 0 0.412805 0H14.4176C14.6469 0 14.8304 0.183469 14.8304 0.412805V4.54085C14.8304 4.77019 14.6469 4.95366 14.4176 4.95366H5.77926C5.64166 4.95366 5.51935 5.07597 5.51935 5.21357V8.59245C5.51935 8.73005 5.64166 8.85237 5.77926 8.85237H12.1242C12.3536 8.85237 12.537 9.03583 12.537 9.26517V13.3932C12.537 13.6226 12.3536 13.806 12.1242 13.806H5.77926C5.64166 13.806 5.51935 13.9283 5.51935 14.0659V20.1816C5.51935 20.4109 5.33588 20.5944 5.10655 20.5944H0.412805C0.183469 20.5944 0 20.4109 0 20.1816V0.412805Z" fill="#2A3AD0"/>
<path d="M17.5213 0.412805C17.5213 0.183469 17.7047 0 17.9341 0H22.6278C22.8572 0 23.0406 0.183469 23.0406 0.412805V20.1663C23.0406 20.3956 22.8572 20.5791 22.6278 20.5791H17.9341C17.7047 20.5791 17.5213 20.3956 17.5213 20.1663V0.412805Z" fill="#2A3AD0"/>
<path d="M37.1677 0H27.4897C27.2604 0 27.0769 0.183469 27.0769 0.412805V20.1663C27.0769 20.3956 27.2604 20.5791 27.4897 20.5791H35.7764C50.5609 20.5791 47.4114 0 37.1677 0ZM36.7396 15.6254H33.0091C32.7798 15.6254 32.5963 15.4419 32.5963 15.2126V5.36646C32.5963 5.13712 32.7798 4.95365 33.0091 4.95365H34.9661C43.268 4.95365 41.7391 15.6254 36.7549 15.6254H36.7396Z" fill="#2A3AD0"/>
<path d="M2.82848 27.2925C2.55327 27.1396 2.24749 27.0632 1.89584 27.0632C1.54419 27.0632 1.33015 27.1243 1.08552 27.2619C0.917344 27.3537 0.779742 27.4913 0.65743 27.6595V25.6719H0V30.6561H0.626851V30.0751C0.749164 30.2433 0.902054 30.3962 1.07023 30.5032C1.31486 30.6408 1.59006 30.702 1.89584 30.702C2.20162 30.702 2.55327 30.6255 2.82848 30.4726C3.10368 30.3198 3.31773 30.1057 3.47062 29.8305C3.62351 29.5553 3.69995 29.2342 3.69995 28.8826C3.69995 28.5309 3.62351 28.2099 3.47062 27.9347C3.31773 27.6595 3.10368 27.4454 2.82848 27.2925ZM2.88963 29.54C2.78261 29.7235 2.64501 29.8764 2.46154 29.9834C2.27807 30.0904 2.07931 30.1363 1.84998 30.1363C1.62064 30.1363 1.42188 30.0904 1.23841 29.9834C1.05495 29.8764 0.917344 29.7388 0.81032 29.54C0.703297 29.3565 0.65743 29.1272 0.65743 28.8826C0.65743 28.638 0.703297 28.4086 0.81032 28.2251C0.917344 28.0417 1.05495 27.8888 1.23841 27.7971C1.42188 27.69 1.62064 27.6442 1.84998 27.6442C2.07931 27.6442 2.27807 27.69 2.46154 27.7971C2.64501 27.9041 2.78261 28.0417 2.88963 28.2251C2.99666 28.4086 3.04252 28.638 3.04252 28.8826C3.04252 29.1272 2.99666 29.3565 2.88963 29.54Z" fill="#565E84"/>
<path d="M7.03297 27.0938L5.79455 29.9375L4.54085 27.0938H3.86813L5.4429 30.6408L5.33588 30.8854C5.24415 31.0842 5.15241 31.2371 5.04539 31.3135C4.93837 31.39 4.81605 31.4358 4.64787 31.4358C4.47969 31.4358 4.41854 31.4206 4.29623 31.3747C4.1892 31.3288 4.08218 31.2677 4.00573 31.1759L3.73053 31.6652C3.85284 31.7722 3.99044 31.8486 4.14333 31.9098C4.31151 31.971 4.4644 32.0015 4.64787 32.0015C4.83134 32.0015 4.99952 31.971 5.15241 31.9098C5.3053 31.8486 5.4429 31.7416 5.58051 31.604C5.70282 31.4664 5.82513 31.2677 5.93215 31.0078L7.65982 27.0938H7.03297Z" fill="#565E84"/>
<path d="M11.6807 22.2422H10.106V30.7123H14.2799V29.1834H11.6807V22.2422Z" fill="#565E84"/>
<path d="M19.8911 25.2727C19.6311 24.921 19.3254 24.6458 18.9584 24.4471C18.5915 24.2636 18.194 24.1719 17.7506 24.1719C17.3072 24.1719 16.8485 24.2636 16.451 24.4471C16.0535 24.6305 15.7019 24.9057 15.3808 25.2727C15.0903 25.5938 14.8762 25.9454 14.7539 26.3276C14.6316 26.7099 14.5705 27.1074 14.5705 27.5508C14.5705 27.9941 14.6316 28.4222 14.7692 28.8045C14.9068 29.202 15.1056 29.5536 15.3655 29.8594C15.6407 30.1958 15.9771 30.4404 16.3746 30.6391C16.7721 30.8226 17.2155 30.9143 17.7047 30.9143C18.194 30.9143 17.8423 30.9143 17.9188 30.9143C17.9952 30.9143 18.0564 30.9144 18.1328 30.8991C18.4692 30.8379 18.7902 30.7156 19.1113 30.5474C19.4324 30.3639 19.677 30.1499 19.8758 29.8747H19.8911V30.7309H21.2977V24.3859H19.8911V25.288V25.2727ZM19.8452 27.5508C19.8452 28.1012 19.677 28.5445 19.3254 28.9115C18.9737 29.2784 18.5303 29.4619 17.9799 29.4466C17.4601 29.4466 17.032 29.2784 16.6498 28.9268C16.2828 28.5751 16.0994 28.1317 16.0994 27.6119C16.0994 27.0921 16.2828 26.5875 16.6345 26.2206C16.9861 25.8537 17.4448 25.6702 18.0105 25.6702C18.5609 25.6702 19.0043 25.8384 19.3407 26.2053C19.677 26.5723 19.8605 27.0156 19.8605 27.5355L19.8452 27.5508Z" fill="#565E84"/>
<path d="M27.8261 24.3674H26.022L23.9732 27.364V22.2422H22.4443V30.7123H23.9732V27.7462L26.1596 30.7123H28.2083L25.5174 27.471L27.8261 24.3674Z" fill="#565E84"/>
<path d="M32.9326 24.3706V25.2727C32.688 24.921 32.3669 24.6458 32 24.4471C31.6331 24.2636 31.2355 24.1719 30.7922 24.1719C30.3488 24.1719 29.8901 24.2636 29.4926 24.4471C29.0951 24.6305 28.7434 24.9057 28.4223 25.2727C28.1319 25.5938 27.9178 25.9454 27.7955 26.3276C27.6732 26.7099 27.612 27.1074 27.612 27.5508C27.612 27.9941 27.6885 28.4222 27.8261 28.8045C27.9637 29.202 28.1624 29.5536 28.4071 29.8594C28.6823 30.1958 29.0186 30.4404 29.4161 30.6391C29.8137 30.8226 30.257 30.9143 30.7463 30.9143C31.2355 30.9143 30.8839 30.9143 30.9603 30.9143C31.0368 30.9143 31.0979 30.9144 31.1744 30.8991C31.5107 30.8379 31.8318 30.7156 32.1529 30.5474C32.4739 30.3639 32.7186 30.1499 32.9173 29.8747H32.9326V30.7309H34.3392V24.3859H32.9326V24.3706ZM32.8868 27.5508C32.8868 28.1012 32.7186 28.5445 32.3669 28.9115C32.0153 29.2784 31.5719 29.4619 31.0215 29.4466C30.5017 29.4466 30.0583 29.2784 29.6913 28.9268C29.3244 28.5751 29.1256 28.1317 29.1256 27.6119C29.1256 27.0921 29.3091 26.5875 29.6608 26.2206C30.0124 25.8537 30.4711 25.6702 31.0368 25.6702C31.5872 25.6702 32.0153 25.8384 32.3669 26.2053C32.7033 26.5723 32.8868 27.0156 32.8868 27.5355V27.5508Z" fill="#565E84"/>
<path d="M39.5681 27.6543C39.5681 27.7002 39.5681 27.7614 39.5681 27.8225C39.5528 28.2353 39.4458 28.6023 39.2776 28.9386C39.1094 29.275 38.773 29.4432 38.2532 29.4432C37.7334 29.4432 37.7945 29.382 37.6111 29.275C37.4276 29.168 37.2747 28.9998 37.1677 28.801C37.1218 28.694 37.076 28.587 37.0607 28.4799C37.0301 28.3576 37.0148 28.2353 36.9995 28.113C36.9995 28.006 36.9995 27.899 36.9842 27.7919C36.9842 27.6849 36.9842 27.5932 36.9842 27.4862V24.3672H35.4553V27.9601C35.4553 28.3576 35.4859 28.7399 35.5471 29.0762C35.6082 29.4126 35.7764 29.7336 36.0669 30.0394C36.3421 30.3452 36.6479 30.5593 36.9842 30.6969C37.3359 30.8345 37.7028 30.9109 38.0698 30.9109C38.4367 30.9109 38.7425 30.8497 39.0177 30.7121C39.3082 30.5745 39.5222 30.3452 39.6904 30.0394H39.7057V30.7121H41.1123V24.3672H39.5834V27.6543H39.5681Z" fill="#565E84"/>
<path d="M44.3689 24.3674V22.2422H42.84V24.3674H42.0908V25.7281H42.84V30.7123H44.3689V25.7281H45.2862V24.3674H44.3689Z" fill="#565E84"/>
</g>
<defs>
<clipPath id="clip0_logo">
<rect width="45.8672" height="32" fill="white"/>
</clipPath>
</defs>
</svg>
